<?xml version="1.0" encoding="UTF-8"?>
<svg width="191px" height="120px" viewBox="0 0 191 120" version="1.1" xmlns="http://www.w3.org/2000/svg" xmlns:xlink="http://www.w3.org/1999/xlink">
    <!-- Generator: Sketch 48.2 (47327) - http://www.bohemiancoding.com/sketch -->
    <title>elephant</title>
    <desc>Created with Sketch.</desc>
    <defs></defs>
    <g id="Page-2" stroke="none" stroke-width="1" fill="none" fill-rule="evenodd">
        <g id="elephant" fill="#0A9A6E" fill-rule="nonzero">
            <path d="M137.44663,118.90394 C134.86586,118.35156 134.75372,118.11471 135.29603,114.36181 C135.84801,110.542 135.42063,109.72497 123.17085,91.182028 C116.18732,80.610795 110.30585,71.79933 110.10091,71.600991 C109.89595,71.402653 107.78583,74.98153 105.41173,79.554054 C103.03763,84.126577 98.86266,91.423328 96.13402,95.769059 C93.405372,100.11479 91.172847,104.5737 91.172847,105.67776 C91.172847,106.78181 92.520427,109.45848 94.16747,111.62589 L97.16209,115.56665 L92.954681,115.55865 C88.526035,115.55065 76.488235,113.87387 75.752369,113.16172 C75.51529,112.93229 76.529381,109.47097 78.005905,105.46991 C81.727518,95.385119 84.995395,83.926907 85.835129,78.018175 L86.542199,73.042918 L81.338253,73.849716 C78.476083,74.293455 72.62859,74.676188 68.343824,74.700234 L60.55334,74.743954 L54.893257,80.134724 L49.233173,85.525495 L49.609168,95.355309 L49.985163,105.18512 L53.600008,108.38944 C55.588174,110.15223 57.214854,112.01253 57.214854,112.52385 C57.214854,113.75872 52.412024,114.63018 45.693392,114.6144 C35.810384,114.5912 36.087927,114.89142 35.712979,103.81752 C35.532434,98.48521 35.077397,93.826009 34.701786,93.463739 C33.312846,92.12413 26.31093,98.70848 24.650796,102.91532 C23.739137,105.2255 22.681455,107.11564 22.300391,107.11564 C19.537342,107.11564 8.158903,95.691039 9.805549,94.570109 C13.868641,91.804222 27.118432,81.497165 28.423516,80.087137 C30.144851,78.227388 30.112553,77.926699 27.268534,69.334514 C25.659323,64.47286 23.835263,57.675193 23.215065,54.228588 C22.594868,50.781982 21.727386,47.962033 21.287327,47.962033 C20.275308,47.962033 15.186543,60.679057 13.155052,68.284908 C12.30754,71.457973 11.614121,76.196521 11.614121,78.815017 C11.614121,82.56101 11.214059,83.783119 9.737448,84.547899 C6.856981,86.039774 3.3577383,85.70694 1.5452021,83.768686 C-0.0096132,82.106028 0.047015,81.961603 2.6652738,80.912052 C5.961301,79.590812 8.698576,75.450789 8.716181,71.760289 C8.751851,64.283433 12.71769,50.900984 18.043948,40.284412 C23.019098,30.367685 24.146902,28.832241 29.47422,24.722713 C47.983025,10.444901 54.960324,8.629263 69.511957,14.30406 C78.772054,17.915282 83.568662,18.446633 94.361,17.056745 C106.12743,15.541411 108.08384,14.714545 110.09008,10.408944 C111.02576,8.400882 113.19452,5.2753786 114.90953,3.4633816 L118.02775,0.1688413 L122.30697,1.4704185 C136.78309,5.8735116 156.49545,11.694295 158.6818,13.262161 C160.08965,14.271748 164.04912,21.974934 169.51879,29.591376 C178.44789,42.025044 179.46363,43.860391 179.46363,47.560746 C179.46363,52.040785 179.86755,52.317496 187.22546,52.877991 L190.62125,53.13667 L187.22546,54.220808 C185.35777,54.817084 182.68575,55.548423 181.28764,55.846006 C179.21079,56.288054 178.63189,57.075345 178.12414,60.148284 C177.78232,62.216955 176.36217,67.757262 174.96823,72.460077 C172.9145,79.388911 172.5172,82.373216 172.87349,88.194734 C173.27737,94.794059 173.83413,96.57105 178.33371,105.62211 C178.56717,106.09171 177.98836,106.19006 177.04747,105.84065 C176.10658,105.49124 174.78277,105.65031 174.10566,106.19413 C173.16311,106.95116 172.05686,105.57946 169.38591,100.34192 C164.51483,90.790038 163.40977,84.274667 164.96092,74.252526 C166.48406,64.411369 166.49821,54.977977 164.99242,53.222166 C163.57286,51.566843 150.37692,48.103794 144.4513,47.831499 C140.68973,47.658646 139.37911,48.110823 135.98039,50.754053 C133.76893,52.473928 131.73139,54.576809 131.45252,55.427121 C130.85287,57.25553 133.28972,66.554831 139.30836,85.405935 C144.48888,101.63198 147.0528,107.37808 151.79316,113.38618 C154.92558,117.35632 155.11634,117.90341 153.55857,118.44932 C151.57453,119.1446 142.58615,120.05926 141.13019,119.71403 C140.60176,119.58922 138.94415,119.22446 137.44663,118.90394 Z" id="path12"></path>
        </g>
    </g>
</svg>