<?xml version="1.0" encoding="UTF-8"?>
<svg width="157px" height="100px" viewBox="0 0 157 100" version="1.1" xmlns="http://www.w3.org/2000/svg" xmlns:xlink="http://www.w3.org/1999/xlink">
    <!-- Generator: Sketch 48.2 (47327) - http://www.bohemiancoding.com/sketch -->
    <title>Slice 2</title>
    <desc>Created with Sketch.</desc>
    <defs></defs>
    <g id="WRIT-340-UI-Mockups" stroke="none" stroke-width="1" fill="none" fill-rule="evenodd">
        <rect id="Rectangle-3" fill="#01C9CA" x="0" y="0" width="174" height="100" rx="10"></rect>
        <g id="elephant_rating_full" transform="translate(10.000000, 21.000000)" fill="#FFFFFF" fill-rule="nonzero">
            <path d="M58.3442181,59.5558987 C57.2446453,59.2788324 57.1968665,59.1600317 57.4279252,57.2776285 C57.6631039,55.3616641 57.4810128,54.9518531 52.2618246,45.6509674 C49.2863952,40.3485818 46.7805136,35.9288717 46.693196,35.8293876 C46.60587,35.7299039 45.7068242,37.5250196 44.6953061,39.818535 C43.6837879,42.1120499 41.9049843,45.7720002 40.7424095,47.9517593 C39.5798313,50.1315185 38.6286331,52.3680466 38.6286331,52.921828 C38.6286331,53.4756043 39.2027882,54.8181853 39.9045337,55.9053285 L41.1804329,57.8819597 L39.3878081,57.877947 C37.5009223,57.8739343 32.3720512,57.0328845 32.0585253,56.6756798 C31.9575145,56.5606008 32.389582,54.8244502 33.0186755,52.8175733 C34.6043201,47.7591803 35.9966443,42.0118981 36.3544246,39.0481591 L36.6556815,36.5526384 L34.4384684,36.9573172 C33.2190013,37.1798906 30.7275961,37.3718642 28.9020123,37.3839254 L25.5827689,37.4058547 L23.1712123,40.1097911 L20.7596553,42.813728 L20.9198531,47.744228 L21.080051,52.6747265 L22.6202057,54.2819695 C23.4672913,55.1661608 24.1603608,56.0992618 24.1603608,56.3557329 C24.1603608,56.9751268 22.1140487,57.4122392 19.2514826,57.4043242 C15.0406904,57.3926874 15.1589415,57.5432736 14.9991897,51.9887571 C14.922266,49.3141435 14.7283912,46.9771521 14.5683569,46.7954424 C13.9765799,46.1235129 10.9933167,49.4261326 10.2859937,51.5362259 C9.89756878,52.6949806 9.44692875,53.6430489 9.28457116,53.6430489 C8.10733594,53.6430489 3.25939471,47.9126256 3.960971,47.3503824 C5.69210751,45.9630514 11.3373641,40.7931729 11.8934132,40.0859221 C12.6268118,39.1530975 12.6130508,39.002276 11.4013172,34.6925538 C10.7156906,32.2540147 9.9385246,28.8443981 9.67428066,27.1156282 C9.41003716,25.3868579 9.04043446,23.9724101 8.85294124,23.9724101 C8.42175656,23.9724101 6.25361788,30.3510951 5.38807306,34.1660858 C5.02697885,35.7576517 4.7315381,38.1344424 4.7315381,39.4478442 C4.7315381,41.3267829 4.56108616,41.9397761 3.93195563,42.3233792 C2.70469284,43.0716833 1.21379212,42.9047383 0.441536013,41.9325367 C-0.22091454,41.0985702 -0.196787312,41.0261286 0.918758044,40.4996882 C2.323076,39.8369723 3.48932985,37.7603935 3.4968307,35.9092893 C3.5120284,32.1590007 5.20172893,25.4465477 7.47105478,20.1214206 C9.59078622,15.1473262 10.0713027,14.3771686 12.3410802,12.3158856 C20.2270124,5.15433075 23.1997871,4.2436316 29.3997115,7.09003203 C33.3451038,8.9013715 35.388765,9.16788988 39.9869898,8.47074111 C45.0002399,7.71067033 45.8337955,7.29592568 46.6885818,5.13629521 C47.0872412,4.12907882 48.0112713,2.56136914 48.7419751,1.65249627 L50.0705358,0 L51.8937566,0.65285329 C58.0615077,2.86138446 66.4602312,5.78100966 67.3917558,6.56742976 C67.9915898,7.07382477 69.6785767,10.9376373 72.0090052,14.7579403 C75.8133717,20.9944978 76.2461418,21.9150827 76.2461418,23.7711301 C76.2461418,26.0182562 76.4182375,26.1570507 79.5531767,26.4381873 L81,26.5679371 L79.5531767,27.1117259 C78.7574216,27.4108098 77.6189705,27.7776394 77.0232864,27.926903 C76.1384158,28.1486282 75.8917674,28.5435226 75.6754335,30.0848667 C75.5297964,31.1224837 74.9247218,33.9014258 74.3308144,36.2602933 C73.4557944,39.7357015 73.2865192,41.232588 73.4383215,44.1525817 C73.6104002,47.4627127 73.8476155,48.354027 75.7647237,52.8939147 C75.8641926,53.1294596 75.6175826,53.1787907 75.2167034,53.0035314 C74.8158242,52.8282721 74.2517966,52.9080594 73.9633046,53.1808321 C73.5617181,53.560548 73.090385,52.8725221 71.9523898,50.2454438 C69.8769989,45.4543506 69.4061728,42.1863298 70.0670617,37.1593612 C70.7160165,32.2231717 70.7220453,27.4915115 70.0804827,26.6108208 C69.4756595,25.7805334 63.8533469,24.0435155 61.3286546,23.9069361 C59.7259857,23.8202354 59.1675779,24.0470411 57.7195062,25.3728491 C56.7772831,26.2355148 55.9091611,27.2902911 55.7903446,27.716796 C55.5348555,28.6339009 56.5731091,33.2983028 59.1374339,42.7537583 C61.344666,50.8925202 62.4370596,53.7746852 64.4567555,56.7882658 C65.7913663,58.7796337 65.8726423,59.0540465 65.2089328,59.3278675 C64.3636052,59.6766104 60.5339816,60.1353913 59.9136497,59.9622287 C59.6885048,59.8996257 58.9822572,59.7166671 58.3442181,59.5558987 Z" id="path12"></path>
        </g>
    </g>
</svg>