<?xml version="1.0" encoding="UTF-8"?>
<svg width="192px" height="122px" viewBox="0 0 192 122" version="1.1" xmlns="http://www.w3.org/2000/svg" xmlns:xlink="http://www.w3.org/1999/xlink">
    <!-- Generator: Sketch 48.2 (47327) - http://www.bohemiancoding.com/sketch -->
    <title>elephant</title>
    <desc>Created with Sketch.</desc>
    <defs>
        <path d="M136.937742,118.735099 C134.356972,118.182719 134.244832,117.945869 134.787142,114.192969 C135.339122,110.373159 134.911742,109.556129 122.661962,91.0131867 C115.678432,80.4419537 109.796962,71.6304887 109.592022,71.4321497 C109.387062,71.2338117 107.276942,74.8126887 104.902842,79.3852127 C102.528742,83.9577357 98.3537722,91.2544867 95.6251322,95.6002177 C92.8964842,99.9459487 90.6639592,104.404859 90.6639592,105.508919 C90.6639592,106.612969 92.0115392,109.289639 93.6585822,111.457049 L96.6532022,115.397809 L92.4457932,115.389809 C88.0171472,115.381809 75.9793472,113.705029 75.2434812,112.992879 C75.0064022,112.763449 76.0204932,109.302129 77.4970172,105.301069 C81.2186302,95.2162777 84.4865072,83.7580657 85.3262412,77.8493337 L86.0333112,72.8740767 L80.8293652,73.6808747 C77.9671952,74.1246137 72.1197022,74.5073467 67.8349362,74.5313927 L60.0444522,74.5751127 L54.3843692,79.9658827 L48.7242852,85.3566537 L49.1002802,95.1864677 L49.4762752,105.016279 L53.0911202,108.220599 C55.0792862,109.983389 56.7059662,111.843689 56.7059662,112.355009 C56.7059662,113.589879 51.9031362,114.461339 45.1845042,114.445559 C35.3014962,114.422359 35.5790392,114.722579 35.2040912,103.648679 C35.0235462,98.3163687 34.5685092,93.6571677 34.1928982,93.2948977 C32.8039582,91.9552887 25.8020422,98.5396387 24.1419082,102.746479 C23.2302492,105.056659 22.1725672,106.946799 21.7915032,106.946799 C19.0284542,106.946799 7.65001515,95.5221977 9.29666115,94.4012677 C13.3597532,91.6353807 26.6095442,81.3283237 27.9146282,79.9182957 C29.6359632,78.0585467 29.6036652,77.7578577 26.7596462,69.1656727 C25.1504352,64.3040187 23.3263752,57.5063517 22.7061772,54.0597467 C22.0859802,50.6131407 21.2184982,47.7931917 20.7784392,47.7931917 C19.7664202,47.7931917 14.6776552,60.5102157 12.6461642,68.1160667 C11.7986522,71.2891317 11.1052332,76.0276797 11.1052332,78.6461757 C11.1052332,82.3921687 10.7051712,83.6142777 9.22856015,84.3790577 C6.34809315,85.8709327 2.84885045,85.5380987 1.03631425,83.5998447 C-0.518501049,81.9371867 -0.461872849,81.7927617 2.15638595,80.7432107 C5.45241315,79.4219707 8.18968815,75.2819477 8.20729315,71.5914477 C8.24296315,64.1145917 12.2088022,50.7321427 17.5350602,40.1155707 C22.5102102,30.1988437 23.6380142,28.6633997 28.9653322,24.5538717 C47.4741372,10.2760597 54.4514362,8.4604217 69.0030692,14.1352187 C78.2631662,17.7464407 83.0597742,18.2777917 93.8521122,16.8879037 C105.618542,15.3725697 107.574952,14.5457037 109.581192,10.2401027 C110.516872,8.2320407 112.685632,5.1065373 114.400642,3.2945403 L117.518862,0 L121.798082,1.3015772 C136.274202,5.7046703 155.986562,11.5254537 158.172912,13.0933197 C159.580762,14.1029067 163.540232,21.8060927 169.009902,29.4225347 C177.939002,41.8562027 178.954742,43.6915497 178.954742,47.3919047 C178.954742,51.8719437 179.358662,52.1486547 186.716572,52.7091497 L190.112362,52.9678287 L186.716572,54.0519667 C184.848882,54.6482427 182.176862,55.3795817 180.778752,55.6771647 C178.701902,56.1192127 178.123002,56.9065037 177.615252,59.9794427 C177.273432,62.0481137 175.853282,67.5884207 174.459342,72.2912357 C172.405612,79.2200697 172.008312,82.2043747 172.364602,88.0258927 C172.768482,94.6252177 173.325242,96.4022087 177.824822,105.453269 C178.058282,105.922869 177.479472,106.021219 176.538582,105.671809 C175.597692,105.322399 174.273882,105.481469 173.596772,106.025289 C172.654222,106.782319 171.547972,105.410619 168.877022,100.173079 C164.005942,90.6211967 162.900882,84.1058257 164.452032,74.0836847 C165.975172,64.2425277 165.989322,54.8091357 164.483532,53.0533247 C163.063972,51.3980017 149.868032,47.9349527 143.942412,47.6626577 C140.180842,47.4898047 138.870222,47.9419817 135.471502,50.5852117 C133.260042,52.3050867 131.222502,54.4079677 130.943632,55.2582797 C130.343982,57.0866887 132.780832,66.3859897 138.799472,85.2370937 C143.979992,101.463139 146.543912,107.209239 151.284272,113.217339 C154.416692,117.187479 154.607452,117.734569 153.049682,118.280479 C151.065642,118.975759 142.077262,119.890419 140.621302,119.545189 C140.092872,119.420379 138.435262,119.055619 136.937742,118.735099 Z" id="path-1"></path>
        <filter x="-1.6%" y="-2.6%" width="104.3%" height="105.1%" filterUnits="objectBoundingBox" id="filter-2">
            <feGaussianBlur stdDeviation="2.5" in="SourceAlpha" result="shadowBlurInner1"></feGaussianBlur>
            <feOffset dx="0" dy="0" in="shadowBlurInner1" result="shadowOffsetInner1"></feOffset>
            <feComposite in="shadowOffsetInner1" in2="SourceAlpha" operator="arithmetic" k2="-1" k3="1" result="shadowInnerInner1"></feComposite>
            <feColorMatrix values="0 0 0 0 0.0392156863   0 0 0 0 0.603921569   0 0 0 0 0.431372549  0 0 0 1 0" type="matrix" in="shadowInnerInner1"></feColorMatrix>
        </filter>
    </defs>
    <g id="Page-2" stroke="none" stroke-width="1" fill="none" fill-rule="evenodd">
        <g id="elephant" transform="translate(1.000000, 1.000000)" fill-rule="nonzero">
            <g id="path12">
                <use fill="#FFFFFF" fill-rule="evenodd" xlink:href="#path-1"></use>
                <use fill="black" fill-opacity="1" filter="url(#filter-2)" xlink:href="#path-1"></use>
                <use stroke="#979797" stroke-width="1" xlink:href="#path-1"></use>
            </g>
        </g>
    </g>
</svg>